<svg width="26" height="26" xmlns="http://www.w3.org/2000/svg">

 <g>
  <title>background</title>
  <rect fill="none" id="canvas_background" height="28" width="28" y="-1" x="-1"/>
 </g>
 <g>
  <title>Layer 1</title>
  <path stroke="null" style="vector-effect: non-scaling-stroke;" id="svg_1" fill="white"/>
  <path id="svg_2" fill="#ED1D24" d="m25.791879,12.924179c0,7.0909 -5.752,12.8678 -12.8677,12.8678c-7.11573,0 -12.86779,-5.7521 -12.86779,-12.8678c0,-7.11567 5.75206,-12.86773 12.86779,-12.86773c7.1157,0 12.8677,5.77686 12.8677,12.86773z"/>
  <path stroke="null" id="svg_3" fill="white" d="m19.877098,17.232958c0,0.5207 -0.4215,0.9422 -0.9422,0.9422c-0.5206,0 -0.9421,-0.4215 -0.9421,-0.9422c0,-0.5206 0.4215,-0.9421 0.9421,-0.9421c0.5455,0 0.9422,0.4215 0.9422,0.9421z"/>
  <path id="svg_4" fill="white" d="m8.850399,17.637118c-0.9918,-1.0413 -0.2232,-3.0496 -0.0496,-4.7355c-0.2232,0.2231 -2.33059,5.157 -4.26448,5.157c-0.02479,0 -0.07437,0 -0.09917,0c-1.76033,-0.1736 -1.53719,-2.6033 -0.99173,-4.0661l2.82644,0c-0.86777,2.4049 0.32232,1.4132 1.1405,-0.0992c1.63634,-3.3223 1.66114,-3.3967 3.44624,-8.40496l3.124,0c-0.9173,2.85126 -1.7107,5.40496 -2.0826,8.35536c0,0.0992 0.0495,0.2231 0.1735,0.1736c0.6446,-0.0992 4.1405,-7.98351 4.4628,-8.52896l3.124,0c0,0 -3.3223,9.17356 -2.7769,10.04136c0.2728,0.4958 0.6447,-0.4463 0.9918,-0.8182l0.4958,0.4959c-0.9173,1.0165 -1.9586,2.876 -3.4215,2.876c-0.1239,0 -0.2231,-0.0248 -0.3471,-0.0248c-0.2231,-0.0496 -0.4462,-0.1736 -0.595,-0.3223c-1.686,-1.4628 1.3636,-6.9174 1.0413,-7.2645c-0.0992,0 -0.1983,0.2727 -0.3719,0.6446c-0.9173,1.9091 -3.0496,6.967 -4.8099,6.967c-0.2975,-0.0248 -0.719,-0.124 -1.0165,-0.4463z"/>
 </g>
</svg>