<svg width="75" height="60" viewBox="0 0 75 60" fill="none" xmlns="http://www.w3.org/2000/svg">
<path d="M60.2655 6.73412C54.0649 1.23285 45.859 -4.92731e-07 38.205 -4.92731e-07H35.7763C27.8462 -4.92731e-07 19.585 1.34307 13.7342 6.73412C8.25101 12.9347 7 21.1592 7 28.8129V31.1683C7 39.08 8.34312 47.4148 13.7342 53.2655C19.9715 58.7855 28.2327 60 35.9235 60H38.0577C46.0063 60 54.378 58.6749 60.2655 53.2655C65.7855 47.0281 67 38.7488 67 31.0578V28.9236C67 20.9751 65.6749 12.6036 60.2655 6.73412Z" fill="#FBFCFD"/>
<path d="M36.9968 35.8923C34.2591 35.8923 32.0321 33.7152 32.0321 31.0386C32.0321 28.3624 34.2591 26.1848 36.9968 26.1848C39.7342 26.1848 41.9614 28.3624 41.9614 31.0386C41.9614 33.7152 39.7342 35.8923 36.9968 35.8923ZM33.6117 14.2765C33.6117 12.4515 35.1302 10.9671 36.9968 10.9671C38.8635 10.9671 40.3819 12.4515 40.3819 14.2765C40.3819 16.1014 38.8635 17.5859 36.9968 17.5859C35.1302 17.5859 33.6117 16.1014 33.6117 14.2765ZM23.9103 26.8814C23.4556 28.2497 22.1627 29.1697 20.6927 29.1697C20.3383 29.1697 19.9857 29.1146 19.6446 29.0062C17.8695 28.4421 16.8946 26.5715 17.4717 24.8356C17.9265 23.4673 19.2201 22.548 20.6906 22.548C21.0445 22.548 21.3961 22.6031 21.737 22.711C22.5967 22.9842 23.2964 23.5687 23.7071 24.3567C24.1174 25.1448 24.1898 26.0412 23.9103 26.8814ZM44.6696 31.0386C44.6696 27.2782 42.0486 24.2382 38.3519 23.7018V19.7308C40.9237 19.218 42.6384 16.9404 42.6384 14.2765C42.6384 11.2349 40.1077 8.76068 36.9968 8.76068C33.8858 8.76068 31.3551 11.2349 31.3551 14.2765C31.3551 16.9404 33.5236 19.218 36.0952 19.7308V23.7018C33.579 24.0669 31.2347 25.5515 30.1363 27.6993L26.2978 26.4798C26.4235 25.4138 26.2277 24.3347 25.7178 23.356C25.0338 22.0428 23.8674 21.0682 22.4344 20.6132C21.8683 20.4328 21.2816 20.3415 20.6906 20.3415C18.2394 20.3415 16.0833 21.8737 15.3253 24.154C14.3639 27.0466 15.9891 30.1646 18.9473 31.1046C19.5141 31.2843 20.1012 31.376 20.6927 31.376C22.7581 31.376 24.6106 30.2844 25.5967 28.5768L29.4381 29.7971C29.3687 30.2018 29.324 30.6148 29.324 31.0386C29.324 35.1753 32.7658 38.5402 36.9968 38.5402C41.2275 38.5402 44.6696 35.1753 44.6696 31.0386ZM56.3183 27.3603C55.9078 28.1488 55.2085 28.7328 54.3477 29.0062C54.0068 29.1143 53.6548 29.1694 53.3015 29.1694C51.8312 29.1694 50.5372 28.2497 50.0823 26.8814C49.5059 25.146 50.4813 23.275 52.2562 22.711C52.5975 22.6031 52.9495 22.548 53.3037 22.548C54.7732 22.548 56.0671 23.4678 56.5221 24.8364C56.801 25.6763 56.7288 26.5727 56.3183 27.3603ZM58.6687 24.1544C57.91 21.8737 55.754 20.3415 53.3037 20.3415C52.7129 20.3415 52.1259 20.4328 51.5591 20.6132C48.9678 21.4361 47.4 23.9303 47.6959 26.4806L46.1143 26.9832L46.8116 29.0816L48.3966 28.5776C49.3834 30.2847 51.2361 31.3757 53.3015 31.3757C53.8923 31.3757 54.4793 31.2843 55.0449 31.1046C56.4789 30.6493 57.6451 29.6753 58.3295 28.362C59.013 27.0491 59.1334 25.5548 58.6687 24.1544ZM49.0635 47.2768C48.4817 47.6899 47.795 47.9087 47.0778 47.9087C45.9953 47.9087 44.9701 47.3989 44.3355 46.5445C43.2383 45.0688 43.5742 42.9943 45.0839 41.9213C45.6669 41.5074 46.3536 41.289 47.0703 41.289C48.1524 41.289 49.1777 41.7991 49.8127 42.6538C50.9093 44.1301 50.5735 46.2046 49.0635 47.2768ZM47.0703 39.0825C46.2558 39.0825 45.4669 39.2556 44.7388 39.5806L43.7595 38.2632L41.9339 39.5601L42.9112 40.8755C41.1391 42.7688 40.9085 45.6874 42.5098 47.8411C43.5677 49.265 45.2749 50.115 47.0778 50.115C48.2749 50.115 49.42 49.7506 50.3903 49.0616C52.9064 47.2748 53.4664 43.8184 51.6385 41.357C50.5804 39.9327 48.8723 39.0825 47.0703 39.0825ZM29.6577 46.5445C29.0226 47.3994 27.9974 47.9095 26.9158 47.9095C26.1992 47.9095 25.5119 47.6902 24.9292 47.2764C23.4192 46.2041 23.0833 44.1301 24.1806 42.6538C24.815 41.7995 25.8405 41.2897 26.9228 41.2897C27.6403 41.2897 28.327 41.508 28.909 41.9218C30.419 42.9943 30.7547 45.0683 29.6577 46.5445ZM32.0587 39.5593L30.2331 38.2627L29.2539 39.5806C28.5259 39.2556 27.7369 39.0834 26.9228 39.0834C25.1203 39.0834 23.4127 39.9335 22.3547 41.3573C20.5266 43.8174 21.0864 47.2737 23.6026 49.0616C24.5736 49.7511 25.719 50.1155 26.9158 50.1155C28.7173 50.1155 30.4245 49.2658 31.4833 47.8416C33.0851 45.6863 32.8541 42.7675 31.0815 40.8747L32.0587 39.5593Z" fill="url(#paint0_linear)"/>
<defs>
<linearGradient id="paint0_linear" x1="51.3925" y1="16.45" x2="22.1669" y2="47.7905" gradientUnits="userSpaceOnUse">
<stop stop-color="#00B5CB"/>
<stop offset="1" stop-color="#2370E1"/>
</linearGradient>
</defs>
</svg>
